<mxfile host="app.diagrams.net" modified="2024-04-27T11:25:16.410Z" agent="Mozilla/5.0 (Windows NT 10.0; Win64; x64) AppleWebKit/537.36 (KHTML, like Gecko) Chrome/124.0.0.0 Safari/537.36" etag="GTUxsPicsKszcXfQ-lVw" version="24.3.1" type="device">
  <diagram name="Page-1" id="1banpOJuAYLLAlBCHb6g">
    <mxGraphModel dx="1050" dy="522" grid="1" gridSize="10" guides="1" tooltips="1" connect="1" arrows="1" fold="1" page="1" pageScale="1" pageWidth="850" pageHeight="1100" math="0" shadow="0">
      <root>
        <mxCell id="0" />
        <mxCell id="1" parent="0" />
        <mxCell id="m64dK9vjhYfGqPu_MfMs-3" value="" style="edgeStyle=orthogonalEdgeStyle;rounded=0;orthogonalLoop=1;jettySize=auto;html=1;" edge="1" parent="1" source="m64dK9vjhYfGqPu_MfMs-1" target="m64dK9vjhYfGqPu_MfMs-8">
          <mxGeometry relative="1" as="geometry">
            <mxPoint x="322.20000000000005" y="220" as="targetPoint" />
          </mxGeometry>
        </mxCell>
        <mxCell id="m64dK9vjhYfGqPu_MfMs-9" value="" style="edgeStyle=orthogonalEdgeStyle;rounded=0;orthogonalLoop=1;jettySize=auto;html=1;" edge="1" parent="1" source="m64dK9vjhYfGqPu_MfMs-1" target="m64dK9vjhYfGqPu_MfMs-8">
          <mxGeometry relative="1" as="geometry" />
        </mxCell>
        <mxCell id="m64dK9vjhYfGqPu_MfMs-1" value="&lt;span style=&quot;background-color: initial;&quot;&gt;Transaction .xlsx File&amp;nbsp;&lt;/span&gt;&lt;br&gt;&lt;span style=&quot;background-color: initial;&quot;&gt;Uploaded&amp;nbsp;&lt;/span&gt;&lt;br&gt;&lt;div&gt;&lt;div&gt;To Google Drive Folder&lt;/div&gt;&lt;/div&gt;" style="dashed=0;outlineConnect=0;html=1;align=right;labelPosition=left;verticalLabelPosition=middle;verticalAlign=middle;shape=mxgraph.weblogos.google_drive;direction=east;horizontal=1;" vertex="1" parent="1">
          <mxGeometry x="289" y="83" width="66.4" height="58" as="geometry" />
        </mxCell>
        <mxCell id="m64dK9vjhYfGqPu_MfMs-34" value="" style="edgeStyle=orthogonalEdgeStyle;rounded=0;orthogonalLoop=1;jettySize=auto;html=1;" edge="1" parent="1" source="m64dK9vjhYfGqPu_MfMs-8" target="m64dK9vjhYfGqPu_MfMs-31">
          <mxGeometry relative="1" as="geometry" />
        </mxCell>
        <mxCell id="m64dK9vjhYfGqPu_MfMs-8" value="Integration Service&#xa;identifies the event" style="shape=image;verticalLabelPosition=middle;labelBackgroundColor=default;verticalAlign=middle;aspect=fixed;imageAspect=0;image=data:image/png,iVBORw0KGgoAAAANSUhEUgAAAD0AAAA5CAYAAACF8yP/AAAAAXNSR0IArs4c6QAAAARnQU1BAACxjwv8YQUAAAAJcEhZcwAADsMAAA7DAcdvqGQAAAWaSURBVGhD7Zl7iFVFHMe/M+eYj5WSDBMKKSvREk1TSyN7WC3+oSlW4Cu0aDUl0XJ1sSx1dVkfqbg9MNJ85aaVpmliCZWkkYiRKUVmkEVUKq6mueo9Z/rNnN/Zu+feXde9c1Tcez9wZH4/rpfz2Zn5zeOKyspKpXZtg/zoTYif9gDKR4NCSKj2XeEPGgN07xOkTm/fpJyZT5ugoeO9vNSIS93D2ULoKs2QzhJCVxrwDWwOnw92lebfLCMnnS3kpLOFnHS2kJPOFnLSlxNxQ1vIAc9C5g8BrmnJWaZJM4guvTmwR5x9tJXidizol0fL1hxVo+II1KGfOYgi+42E89xMwHGDxMkKJGYVQO35ioTz4BavgujQDYmpQ6G+2x58JkO8Db/FJy1u6wznqUKIHo9wJoq/fQM8EklFDiyAM7qYo2qcPYPEq8PhDB4P0alXkDt31lpcS8cyvEWbdnBnf1ircG3UKqy5qjHcWe8nhQn1427z2GIvLQScKYuBvKs5cWGkCSsFb85Y+FtWcYKQyddTe3dSLw8DKv/jTOZYD2/R7k64ZVs5omG8aRm8FXOA40c5k066sA+vZBRNgY0mdMa/BtmXBEN8D4nCgVD7vuVE5sQyvEWrG7kV4C1+pX7CiXPwpo+sEtZ4C1+Ev3EJR4R04M6gYnZzB07YYT+86YUiUAE6L16CG0kUiafivTEF/jqaNiE0fdx5HwergyWxFLL64G9cCu/1Io4ItxHcactrXIf1qPHXlnFENG8BZ8J8DjLnkktr/E/eTRefvhKi4z2cSOItmRkZ6uKOHtzKnMsirTHiNHeraNwEbgktUe27coK59vroUnjiGDcyx1paVRw2y0n41Ae9PBlxWq4MjZvCLaX1/tZOQUzbUTOPW7cJYsL74A1uZU7s21CNHqaCXtjfsZkzlOv2IGT7u+CtmseZJLLvUFqmqs3VUyeQKH4GzqgZkYrtb14Br2xS8o+UAbFuQ0NEx7tpmK4x8zQxbQTUrs+NsFv8Htk58FfOrVn84SfhTFxEXyA4E8XfuhregheshDVa2pl6S940jq2pEqZhqndT8v7+5hDhjptrhM1nOt8LrZU6FdSv+4G/DkH26psmHpewRg2eEF8hiwiHkLAzlOZstbXcL19geloOm8iZJP62tfDmjYvIxSkcEou0rrhpwjVghJeVwhlRBGd4IZw6xC+GsCaevfecdUDTPM7Qi69ZBHXsH9pu0hk5hF7cKymAaHs7JA2xkNrmuC6Gaj/ttWMWti9ktDVs9M7XZi0N8ZaXwl+9wLRlf6rAY0tM26AFqs9XfZDQ5+PdX3AiHXfuem7Rd9MfqL7LYirWBw7ZqWdUuGxylbBG76Qi63A9hTX6PF31tLiOs3bYzWlR9383G5CU4qTxyhfWKXyxsJL2f/gGOH2KIyrWz882G41UTHGan5zHGmcILR0PDODo0mLX0/9WRA8OhN5ZyT6Pc5TE/6w8+lkaJU7RW/W+YooDO2nC9GL1eUs4hWWQ9/XjiKHlTOYP5iBAHdwXVOjaaNqcGwHqzGlu2WEtrfG/XA/1x0GOCN2LUxZD9swPYnPJV25uTEPUL3uRmDTI7LNrhIqWU5CyWTx0gBt22O+9w3tpqq5pUIXW1756notuD3GShA98j0TRE8DJ4yZ2Xnobsvdjpl0biupHYqJ9DbC/I2vSLE1Y6d4IhzptP52pS6LCuocn05xn4Qvi+FF4s8dwYI+VtP7VQT8heuOQGJcPr3S06eVU6hzSqdB3+Du3mB5Wh//kpD3229Auvc2xUV/CB/fSwRImuveBSwUt/F3K3/EpLVvja+xh/WOBnsNp/P07FD1xEtt5WoubXx5SL+LpTC1u6hD8jnUkvp6yITbpKwn7QnaFkpPOFnLS2UJOOlvISWcLWSp9AZd7DQbjCvwP+ClJK6BURhMAAAAASUVORK5CYII=;labelPosition=right;align=left;" vertex="1" parent="1">
          <mxGeometry x="291.7" y="223" width="61" height="57" as="geometry" />
        </mxCell>
        <mxCell id="m64dK9vjhYfGqPu_MfMs-29" value="&lt;span style=&quot;text-wrap: nowrap;&quot;&gt;File name should&amp;nbsp;&lt;/span&gt;&lt;div style=&quot;text-wrap: nowrap;&quot;&gt;contain word &quot;Transaction&quot;&amp;nbsp;&lt;/div&gt;&lt;div style=&quot;text-wrap: nowrap;&quot;&gt;&amp;amp; File&lt;/div&gt;&lt;div style=&quot;text-wrap: nowrap;&quot;&gt;&amp;nbsp; &amp;nbsp; &amp;nbsp; &amp;nbsp; &amp;nbsp; &amp;nbsp; &amp;nbsp;extension should be &quot;.xlsx&quot;&lt;/div&gt;" style="shape=note2;boundedLbl=1;whiteSpace=wrap;html=1;size=25;verticalAlign=middle;align=center;labelPosition=center;verticalLabelPosition=middle;labelBackgroundColor=default;" vertex="1" parent="1">
          <mxGeometry x="7" y="200.75" width="200" height="101.5" as="geometry" />
        </mxCell>
        <mxCell id="m64dK9vjhYfGqPu_MfMs-30" value="" style="endArrow=none;dashed=1;html=1;dashPattern=1 3;strokeWidth=2;rounded=0;exitX=0;exitY=0;exitDx=200;exitDy=63.25;exitPerimeter=0;entryX=0;entryY=0.5;entryDx=0;entryDy=0;" edge="1" parent="1" source="m64dK9vjhYfGqPu_MfMs-29" target="m64dK9vjhYfGqPu_MfMs-8">
          <mxGeometry width="50" height="50" relative="1" as="geometry">
            <mxPoint x="227" y="263" as="sourcePoint" />
            <mxPoint x="277" y="213" as="targetPoint" />
          </mxGeometry>
        </mxCell>
        <mxCell id="m64dK9vjhYfGqPu_MfMs-31" value="Ui Demo Bot&amp;nbsp;&lt;div&gt;Triggers&lt;/div&gt;" style="verticalLabelPosition=bottom;aspect=fixed;html=1;shape=mxgraph.salesforce.bots;" vertex="1" parent="1">
          <mxGeometry x="292" y="353" width="60" height="57" as="geometry" />
        </mxCell>
        <mxCell id="m64dK9vjhYfGqPu_MfMs-32" value="Waiting for&amp;nbsp;&lt;div&gt;Trigger&lt;/div&gt;" style="shape=image;html=1;verticalAlign=middle;verticalLabelPosition=middle;labelBackgroundColor=#ffffff;imageAspect=0;aspect=fixed;image=https://cdn2.iconfinder.com/data/icons/date-and-time-fill-outline/64/Hourglass_loading_waiting_sand_watch-128.png;labelPosition=right;align=left;" vertex="1" parent="1">
          <mxGeometry x="597" y="222.5" width="58" height="58" as="geometry" />
        </mxCell>
        <mxCell id="m64dK9vjhYfGqPu_MfMs-33" value="" style="endArrow=none;dashed=1;html=1;dashPattern=1 3;strokeWidth=2;rounded=0;exitX=0.97;exitY=0.611;exitDx=0;exitDy=0;exitPerimeter=0;entryX=0.5;entryY=1;entryDx=0;entryDy=0;" edge="1" parent="1" source="m64dK9vjhYfGqPu_MfMs-31" target="m64dK9vjhYfGqPu_MfMs-32">
          <mxGeometry width="50" height="50" relative="1" as="geometry">
            <mxPoint x="407" y="393" as="sourcePoint" />
            <mxPoint x="457" y="343" as="targetPoint" />
            <Array as="points">
              <mxPoint x="627" y="388" />
            </Array>
          </mxGeometry>
        </mxCell>
        <mxCell id="m64dK9vjhYfGqPu_MfMs-35" value="" style="endArrow=none;dashed=1;html=1;dashPattern=1 3;strokeWidth=2;rounded=0;exitX=0.5;exitY=0;exitDx=0;exitDy=0;entryX=0.922;entryY=0.483;entryDx=0;entryDy=0;entryPerimeter=0;" edge="1" parent="1" source="m64dK9vjhYfGqPu_MfMs-32" target="m64dK9vjhYfGqPu_MfMs-1">
          <mxGeometry width="50" height="50" relative="1" as="geometry">
            <mxPoint x="605" y="183" as="sourcePoint" />
            <mxPoint x="655" y="133" as="targetPoint" />
            <Array as="points">
              <mxPoint x="627" y="111" />
            </Array>
          </mxGeometry>
        </mxCell>
        <mxCell id="m64dK9vjhYfGqPu_MfMs-36" value="&lt;span style=&quot;background-color: initial;&quot;&gt;TO-BE WORKFLOW&lt;/span&gt;&lt;div&gt;Integration Services&lt;/div&gt;" style="text;strokeColor=none;align=center;fillColor=none;html=1;verticalAlign=middle;whiteSpace=wrap;rounded=0;fontStyle=1;fontColor=#ff7b00;fontSize=19;" vertex="1" parent="1">
          <mxGeometry x="182" y="20" width="280" height="30" as="geometry" />
        </mxCell>
      </root>
    </mxGraphModel>
  </diagram>
</mxfile>
